# xmcd
#
# Track frame offsets: 
#        150
#        17068
#        42901
#        57796
#        73518
#        98000
#        119865
#        145630
#        172139
#        191876
#        209315
#        228231
#        246984
#
# Disc length: 3955 seconds
#
# Revision: 0
# Processed by: cddbd v1.5.2PL0 Copyright (c) Steve Scherf et al.
# Submitted via: ExactAudioCopy v0.99pb5
#
DISCID=bd0f710d
DTITLE=Kim Wilson  - Rhythm Room Sessions Vol. 1
DYEAR=2009
DGENRE=Blues
TTITLE0=Same Old Blues
TTITLE1=Take A Little Walk With Me
TTITLE2=Hands Outa My Pocket
TTITLE3=I'm Leavin' You
TTITLE4=Learn To Treat Me Right
TTITLE5=Blue-eyed Baby
TTITLE6=Date Bait
TTITLE7=Please Come Back To Me
TTITLE8=Born Blind
TTITLE9=I'm Going Home
TTITLE10=Please Don't Leave Me
TTITLE11=Gumbo Blues
TTITLE12=I Hear You Knockin'-Bring It On Home
EXTD=
EXTT0=
EXTT1=
EXTT2=
EXTT3=
EXTT4=
EXTT5=
EXTT6=
EXTT7=
EXTT8=
EXTT9=
EXTT10=
EXTT11=
EXTT12=
PLAYORDER=
